# xmcd
# 
# Track frame offsets:
#     150
#     13324
#     30348
#     44985
#     64568
#     84307
#     110829
#     127801
#     154351
#     166330
#     193936
# 
# Disc length: 2731
# 
# Revision: 3
# Processed by: cddbd v1.5.2PL0 Copyright (c) Steve Scherf et al.
# Submitted via: fre:ac v1.0.17
# 
DISCID=940aa90b
DTITLE=Amos Garrett - Get Way Back - A Tribute to Percy Mayfield
DYEAR=2008
DGENRE=Rhythm and Blues
TTITLE0=My Jug and I
TTITLE1=Pretty Eyed Baby
TTITLE2=Stranger In My Own Hometown
TTITLE3=Never Say Naw
TTITLE4=The Country
TTITLE5=To Claim It's Love
TTITLE6=River's Invitation
TTITLE7=Fading Love
TTITLE8=Get Way Back
TTITLE9=Ha Ha In The Daytime
TTITLE10=Lost Mind
EXTD=
EXTT0=
EXTT1=
EXTT2=
EXTT3=
EXTT4=
EXTT5=
EXTT6=
EXTT7=
EXTT8=
EXTT9=
EXTT10=
PLAYORDER=
